<?xml version="1.0" encoding="UTF-8"?>
<svg version="1.1" xmlns="http://www.w3.org/2000/svg" width="1080" height="1080" viewBox="0 -156.5 1080 1080">
<path d="M0 0 C2.54224371 1.90668278 3.98390516 3.5620497 4.7265625 6.703125 C4.96374433 10.27333569 5.00113183 12.7012659 2.77734375 15.62109375 C-0.64579237 18.67673614 -4.38495195 21.10903471 -8.25 23.5625 C-22.99120073 33.27197012 -28.90603785 50.47885741 -33.75 66.6875 C-32.45835937 66.79707031 -31.16671875 66.90664062 -29.8359375 67.01953125 C-24.80606131 67.58310557 -20.18090846 68.82088474 -15.375 70.375 C-14.54427979 70.6419165 -13.71355957 70.90883301 -12.85766602 71.18383789 C0.41153102 75.59481987 13.5775658 83.44768837 23.25 93.6875 C23.25 94.3475 23.25 95.0075 23.25 95.6875 C23.80558594 95.87054688 24.36117188 96.05359375 24.93359375 96.2421875 C28.38572374 98.39613032 30.12385993 101.43930361 32.3125 104.8125 C32.9631543 105.7715625 32.9631543 105.7715625 33.62695312 106.75 C36.58117172 111.22854144 38.52478419 115.60801213 40.25 120.6875 C40.96728271 120.6968457 41.68456543 120.70619141 42.42358398 120.71582031 C59.70691085 120.99597913 76.27673605 122.43293249 93.25 125.6875 C94.45027832 125.90164551 94.45027832 125.90164551 95.67480469 126.12011719 C111.98651864 129.03771695 129.00156813 134.14571048 143.25 142.6875 C144.83809293 143.35228309 146.44149084 143.9825819 148.0625 144.5625 C153.53093193 146.6854411 158.31037925 149.54956463 163.25 152.6875 C164.16007812 153.24695313 165.07015625 153.80640625 166.0078125 154.3828125 C171.31894186 157.68192628 176.32900573 161.16243242 181.1796875 165.109375 C183.25621049 166.75374649 183.25621049 166.75374649 185.703125 168.15234375 C199.22276192 176.30145005 210.74863083 189.12343019 221.875 200.1875 C222.44259033 200.75041748 223.01018066 201.31333496 223.5949707 201.89331055 C233.25 211.58590243 233.25 211.58590243 233.25 214.6875 C233.91 214.6875 234.57 214.6875 235.25 214.6875 C236.51171875 216.12109375 236.51171875 216.12109375 237.9375 218.125 C240.1312591 221.1547304 242.36603763 224.12930093 244.6875 227.0625 C260.11045963 246.88714501 260.11045963 246.88714501 259.72265625 256.6328125 C258.9510921 259.98688474 256.88770717 261.64327695 254.25 263.6875 C254.72566406 264.40486328 254.72566406 264.40486328 255.2109375 265.13671875 C260.14404098 272.94519471 263.93490074 281.25585801 267.8515625 289.60546875 C269.70994133 293.565984 271.63432768 297.47954731 273.625 301.375 C278.0648916 310.19259985 281.3305337 319.43075313 284.5703125 328.74511719 C285.02319784 330.03935417 285.48153365 331.33169685 285.9453125 332.62207031 C294.35155531 356.02791396 299.3532382 380.01910508 302.25 404.6875 C302.33547592 405.35388992 302.42095184 406.02027985 302.50901794 406.7068634 C303.20937482 412.43579291 303.43928031 418.09457557 303.48828125 423.86328125 C303.49812042 424.8181543 303.50795959 425.77302734 303.51809692 426.75683594 C303.80885381 462.31636674 301.20765266 496.81714622 286.25 529.6875 C285.93385742 530.38697754 285.61771484 531.08645508 285.29199219 531.80712891 C277.44706075 549.08779044 268.1764077 564.87840607 256.25 579.6875 C255.0607234 581.22779657 253.8732426 582.76948125 252.6875 584.3125 C240.98289527 599.34257408 222.87525945 620.47908018 204.25 626.6875 C195.46443186 627.5063945 188.70537315 626.6928895 180.7734375 622.78125 C178.09669885 621.42237523 178.09669885 621.42237523 174.25 621.6875 C171.78299755 622.97176919 171.78299755 622.97176919 169.25 624.75 C153.63883723 634.99933672 138.10569921 641.88523287 120.39331055 647.55737305 C113.62881568 649.7674596 107.23567471 652.38292079 100.8125 655.4375 C75.57172601 667.37920909 49.20050454 665.64081423 22.25 661.6875 C21.31397949 661.55359863 20.37795898 661.41969727 19.41357422 661.28173828 C-26.42332248 654.51811106 -71.22936557 633.8734357 -106.83984375 604.2734375 C-108.764989 602.63220384 -108.764989 602.63220384 -111.00390625 601.1015625 C-111.58011719 600.63492188 -112.15632812 600.16828125 -112.75 599.6875 C-112.75 599.0275 -112.75 598.3675 -112.75 597.6875 C-113.45125 597.501875 -114.1525 597.31625 -114.875 597.125 C-118.34482995 595.39008502 -120.04725491 593.25483611 -122.41796875 590.24609375 C-123.68649295 588.55700777 -123.68649295 588.55700777 -125.75 587.6875 C-123.91666006 593.97323695 -120.82868329 596.44984991 -115.69921875 600.34375 C-102.67154514 610.6968681 -90.98354389 623.50959107 -88.125 640.375 C-86.52078991 655.60041208 -87.27609486 675.26238624 -95.8125 688.5 C-99.68252761 691.38193546 -102.47625851 691.48112686 -107.21875 691.20703125 C-109.75 690.6875 -109.75 690.6875 -112.3125 688.5625 C-116.78554677 679.61640646 -116.37848576 670.51385503 -115.25 660.75 C-114.75827249 656.45985568 -114.60423747 652.19013245 -114.5625 647.875 C-114.54832031 646.63105469 -114.53414062 645.38710938 -114.51953125 644.10546875 C-114.79314218 640.04767953 -115.43187279 637.17358802 -118.16015625 634.09765625 C-121.3589103 631.48874337 -124.58702936 629.10570988 -128.0625 626.875 C-140.18864631 618.86639064 -150.8673313 607.58024831 -154.3203125 593.03515625 C-154.46210938 592.26042969 -154.60390625 591.48570312 -154.75 590.6875 C-154.91242188 589.90246094 -155.07484375 589.11742187 -155.2421875 588.30859375 C-156.41364177 580.86149162 -155.32206003 572.24666995 -151.58203125 565.6171875 C-150.41173753 562.90298517 -150.82401002 561.46546994 -151.75 558.6875 C-153.27295764 556.39556131 -153.27295764 556.39556131 -155.25 554.1875 C-162.91811775 544.95558006 -169.43067998 534.87547692 -175.75 524.6875 C-176.21664062 523.94886719 -176.68328125 523.21023438 -177.1640625 522.44921875 C-192.46033139 497.71028108 -203.48955192 470.50868913 -211.75 442.6875 C-212.65813722 439.74732041 -213.5787347 436.81108867 -214.5 433.875 C-214.93235035 432.49350795 -215.36464727 431.11199917 -215.796875 429.73046875 C-216.11140625 428.72628906 -216.4259375 427.72210938 -216.75 426.6875 C-217.05292969 427.65429688 -217.35585938 428.62109375 -217.66796875 429.6171875 C-221.19492209 440.66612646 -225.2709895 451.607411 -232.75 460.6875 C-233.41 460.6875 -234.07 460.6875 -234.75 460.6875 C-234.96785156 461.22890625 -235.18570313 461.7703125 -235.41015625 462.328125 C-243.05584268 475.79166612 -259.45817881 486.06417178 -273.75 490.6875 C-278.2131441 491.52233271 -281.55402066 491.17565483 -285.8125 489.4375 C-289.02658297 484.87557579 -288.63609771 480.06315945 -287.75 474.6875 C-285.21179781 470.71098323 -282.06674131 469.30395228 -277.9375 467.3125 C-266.89468064 461.96286751 -260.29075888 453.06364537 -255.98510742 441.66201782 C-254.61283757 437.49259628 -253.48744927 433.25868951 -252.38653564 429.01080322 C-244.56388425 399.05350017 -244.56388425 399.05350017 -233.75 389.6875 C-233.09 389.6875 -232.43 389.6875 -231.75 389.6875 C-231.5025 389.089375 -231.255 388.49125 -231 387.875 C-229.56927475 385.37123081 -228.1808418 384.20677612 -225.75 382.6875 C-225.09 382.6875 -224.43 382.6875 -223.75 382.6875 C-223.85828125 381.18703125 -223.85828125 381.18703125 -223.96875 379.65625 C-226.08389554 347.31183584 -226.14338723 314.43006654 -217.265625 283.02734375 C-216.67634723 280.35327268 -216.30897574 278.40787736 -216.75 275.6875 C-218.92314089 273.57095464 -218.92314089 273.57095464 -221.8125 271.8125 C-233.25014389 263.98674365 -239.41121909 254.91183052 -245.125 242.4375 C-252.91807701 225.8796471 -260.37151279 213.41424277 -277.75 205.6875 C-279.62910048 204.7582462 -281.50423477 203.82092214 -283.375 202.875 C-284.21289062 202.45605469 -285.05078125 202.03710938 -285.9140625 201.60546875 C-286.51992188 201.30253906 -287.12578125 200.99960938 -287.75 200.6875 C-287.75 200.0275 -287.75 199.3675 -287.75 198.6875 C-288.41 198.6875 -289.07 198.6875 -289.75 198.6875 C-290.88624119 196.41501762 -291.01446843 194.90447236 -291.125 192.375 C-291.17398438 191.61574219 -291.22296875 190.85648438 -291.2734375 190.07421875 C-290.46383208 186.38265972 -288.70653268 184.9562831 -285.75 182.6875 C-276.72694492 181.01000362 -267.91906268 182.69293631 -259.75 186.6875 C-258.82058594 187.12707031 -257.89117187 187.56664062 -256.93359375 188.01953125 C-247.49091952 192.98605098 -240.26875999 200.26189645 -232.75 207.6875 C-231.68773241 208.72289475 -230.62524655 209.75806562 -229.5625 210.79296875 C-218.27505504 221.85754894 -209.91525634 232.99884781 -203.75 247.6875 C-203.3375 246.87667969 -202.925 246.06585938 -202.5 245.23046875 C-196.49046572 233.70772333 -188.95368799 223.75163559 -180.75 213.6875 C-180.28722656 213.0996875 -179.82445312 212.511875 -179.34765625 211.90625 C-176.47109861 208.30366024 -173.34758884 205.53210513 -169.75 202.6875 C-169.94335938 202.130625 -170.13671875 201.57375 -170.3359375 201 C-170.72652344 199.8553125 -170.72652344 199.8553125 -171.125 198.6875 C-171.50785156 197.57375 -171.50785156 197.57375 -171.8984375 196.4375 C-174.39703455 188.36863613 -175.08684183 181.38898438 -175.0625 172.9375 C-175.08666992 171.28234375 -175.08666992 171.28234375 -175.11132812 169.59375 C-175.1158592 161.87279784 -173.94340705 155.07640505 -171.75 147.6875 C-171.43417969 146.55054688 -171.11835938 145.41359375 -170.79296875 144.2421875 C-168.92336671 138.38580851 -166.63713333 133.31338966 -163.3125 128.13671875 C-162.10913833 126.25044933 -160.9952007 124.30692691 -159.921875 122.34375 C-157.29610802 117.70426981 -153.8850116 113.7423484 -150.46484375 109.67382812 C-147.24259932 105.7378329 -147.24259932 105.7378329 -146.75 100.6875 C-148.41525838 99.08906198 -148.41525838 99.08906198 -150.6875 97.8125 C-151.52023437 97.29816406 -152.35296875 96.78382813 -153.2109375 96.25390625 C-154.04882812 95.73699219 -154.88671875 95.22007812 -155.75 94.6875 C-157.10471624 93.70909383 -158.45888713 92.7299321 -159.8125 91.75 C-171.32969249 84.11885323 -183.74352418 79.92478482 -197.5390625 79.53515625 C-198.81172974 79.49237549 -198.81172974 79.49237549 -200.11010742 79.44873047 C-201.79463539 79.40054183 -203.48006877 79.37640568 -205.1652832 79.37939453 C-209.52819055 79.27748062 -211.22765143 79.1126356 -214.73046875 76.26171875 C-218.79955401 71.07501239 -218.79955401 71.07501239 -218.625 66.1875 C-217.67565772 62.39013089 -216.77747709 61.07278498 -213.75 58.6875 C-204.22596069 53.92548035 -186.35131322 57.65486015 -176.75 60.6875 C-175.57695312 61.01621094 -174.40390625 61.34492187 -173.1953125 61.68359375 C-161.37681632 65.23405674 -150.26232033 70.76316113 -140.75 78.6875 C-138.90768269 80.11954239 -137.05330645 81.53619891 -135.1875 82.9375 C-134.25808594 83.64390625 -133.32867187 84.3503125 -132.37109375 85.078125 C-129.69450375 87.03633124 -129.69450375 87.03633124 -125.75 86.6875 C-123.48957574 85.42715384 -123.48957574 85.42715384 -121.125 83.6875 C-103.77474499 72.35718835 -81.15285503 64.39083871 -60.3125 64.625 C-59.26191406 64.63402344 -58.21132813 64.64304687 -57.12890625 64.65234375 C-55.95134766 64.66974609 -55.95134766 64.66974609 -54.75 64.6875 C-54.57911865 63.86415161 -54.57911865 63.86415161 -54.40478516 63.02416992 C-49.75681078 41.29893645 -40.89259411 20.57792362 -22.75 6.6875 C-22.09 6.15253906 -21.43 5.61757813 -20.75 5.06640625 C-14.569876 0.18551287 -7.80238451 -3.72386534 0 0 Z M-117.75 106.6875 C-118.49894531 107.20183594 -119.24789062 107.71617187 -120.01953125 108.24609375 C-125.05036815 111.79557523 -128.84246314 115.95780999 -132.75 120.6875 C-133.77065182 121.83349502 -134.79147851 122.97933433 -135.8125 124.125 C-150.38794232 141.39959831 -155.01495032 160.45667102 -153.75 182.6875 C-153.31100047 185.58212309 -153.31100047 185.58212309 -152.75 187.6875 C-148.18302408 185.298295 -143.82469014 182.85852902 -139.75 179.6875 C-137.13360005 177.65377976 -134.52592051 175.92253249 -131.61328125 174.34375 C-130.82518066 173.91320312 -130.03708008 173.48265625 -129.22509766 173.0390625 C-128.40831543 172.59304687 -127.5915332 172.14703125 -126.75 171.6875 C-125.13826838 170.78312678 -123.52759688 169.87686178 -121.91796875 168.96875 C-120.25794246 168.04143398 -118.59778539 167.11435205 -116.9375 166.1875 C-116.12474609 165.72730469 -115.31199219 165.26710938 -114.47460938 164.79296875 C-108.08507736 161.24044899 -101.53181768 158.40345523 -94.75 155.6875 C-92.72375919 154.854651 -90.6977178 154.02131667 -88.671875 153.1875 C-78.40094706 149.01147158 -68.19089468 144.93259465 -57.54296875 141.8203125 C-54.38763739 140.87793753 -51.28476684 139.8603999 -48.16796875 138.80078125 C-41.46309678 136.55522512 -34.6995257 134.59745836 -27.875 132.75 C-27.24301697 132.57863525 -26.61103394 132.40727051 -25.9598999 132.23071289 C-11.39765507 128.31837308 3.34027312 125.86083639 18.25 123.6875 C13.99510453 110.52311466 3.62539166 102.41862868 -8.375 96.125 C-10.15516547 95.28760129 -11.94844337 94.47782866 -13.75 93.6875 C-14.92304687 93.16929687 -16.09609375 92.65109375 -17.3046875 92.1171875 C-27.32691284 87.91598992 -36.93789627 86.30469903 -47.75 85.6875 C-48.63816406 85.62820312 -49.52632813 85.56890625 -50.44140625 85.5078125 C-74.84198034 84.74396844 -98.11667469 92.39537829 -117.75 106.6875 Z M-114.75 187.6875 C-115.73484375 188.23535156 -116.7196875 188.78320312 -117.734375 189.34765625 C-124.77420816 193.35087744 -131.30238474 197.79317387 -137.75 202.6875 C-138.49765625 203.24050781 -139.2453125 203.79351562 -140.015625 204.36328125 C-154.29256864 215.1223449 -166.66736517 227.92213518 -176.75 242.6875 C-177.34554687 243.54859375 -177.94109375 244.4096875 -178.5546875 245.296875 C-208.02203828 289.56338418 -209.9282729 353.52591155 -199.85351562 404.32275391 C-195.10168259 427.3529546 -189.45696726 450.86270483 -179.03125 472.046875 C-177.86934197 474.44153912 -176.91685794 476.81660893 -176 479.3125 C-171.05384475 491.97796868 -163.80755556 504.09415333 -156.75 515.6875 C-156.22277344 516.56019531 -155.69554687 517.43289063 -155.15234375 518.33203125 C-150.52080325 525.81038151 -145.32280531 532.83903438 -140.07373047 539.88842773 C-138.70383276 541.75024555 -137.36558799 543.63210359 -136.03125 545.51953125 C-134.06330455 548.25241439 -132.15108458 550.35703556 -129.75 552.6875 C-128.59643702 553.99321158 -127.45142642 555.30650203 -126.3125 556.625 C-124.32470448 558.91730887 -122.33517613 561.10232387 -120.1875 563.25 C-118.29786287 565.13963713 -116.63121844 567.00909404 -114.9375 569.0625 C-111.55469322 573.04479152 -107.75042436 576.34034359 -103.75 579.6875 C-102.38488281 580.84958984 -102.38488281 580.84958984 -100.9921875 582.03515625 C-91.53447164 590.02359249 -81.85192667 597.55086644 -71.3125 604.078125 C-69.00508223 605.52729592 -66.78912932 607.05623844 -64.5625 608.625 C-58.00803891 613.01019105 -50.85861729 616.31141118 -43.75 619.6875 C-43.13833984 619.98269531 -42.52667969 620.27789063 -41.89648438 620.58203125 C-18.58284076 631.74200491 5.86983581 637.67157645 31.25 641.6875 C32.44262451 641.88110107 33.63524902 642.07470215 34.86401367 642.27416992 C42.5793858 643.46372726 50.13271104 644.0803445 57.9375 644.125 C58.99388672 644.15787109 60.05027344 644.19074219 61.13867188 644.22460938 C63.93553078 644.24424272 66.50383633 644.21912076 69.25 643.6875 C71.39769916 641.4147741 71.39769916 641.4147741 72.25 638.6875 C73.1575 638.089375 74.065 637.49125 75 636.875 C87.55155737 628.42683639 95.84205381 612.1024824 102.25 598.6875 C102.55679687 598.05376465 102.86359375 597.4200293 103.1796875 596.76708984 C123.78495471 552.96988994 119.05615061 498.3966825 110.72460938 452.44873047 C110.22751305 449.55667316 109.8149345 446.65915572 109.40234375 443.75390625 C108.15176112 435.52824303 106.3136425 427.44095008 104.47363281 419.33105469 C103.87637963 416.69359244 103.28934143 414.053997 102.703125 411.4140625 C100.8240802 403.03362894 98.79399671 394.79893446 96.15991211 386.61694336 C95.25429466 383.70132656 94.49609362 380.78318719 93.77734375 377.81640625 C92.20055478 371.33570774 90.32387645 364.95289622 88.39819336 358.5690918 C87.8124506 356.62483602 87.23313146 354.678744 86.65429688 352.73242188 C84.69663522 346.21463834 82.60753575 339.7975942 80.22802734 333.42260742 C78.76721533 329.33736603 77.54243886 325.18583737 76.28564453 321.03417969 C74.54720341 315.41641664 72.61807968 309.86657914 70.6875 304.3125 C70.30142578 303.18972656 69.91535156 302.06695312 69.51757812 300.91015625 C67.60923267 295.40293785 65.59838404 290.02028876 63.25 284.6875 C62.7475964 283.25795547 62.26462348 281.82123349 61.8125 280.375 C60.74155485 277.02544813 59.46650236 273.84827302 58.0625 270.625 C56.19240536 265.95701184 55.48620962 262.69457024 56.25 257.6875 C58.77906142 254.08550344 60.48787487 252.92306595 64.6875 251.625 C69.06378503 251.70177693 71.24910759 252.64965079 74.25 255.6875 C77.11740794 259.21990254 79.68404972 262.93256544 82.25 266.6875 C82.97445313 267.72777344 83.69890625 268.76804687 84.4453125 269.83984375 C86.34298783 272.56733879 88.23034294 275.30141158 90.11328125 278.0390625 C91.22709136 279.65427853 92.34785143 281.26469501 93.46875 282.875 C98.80293507 290.53819546 104.00945873 298.27857248 109.16894531 306.06005859 C110.54280876 308.12830019 111.928148 310.18876871 113.3125 312.25 C117.00240961 317.78486441 120.58241759 323.39124393 124.16699219 328.99462891 C125.14404836 330.52188488 126.12270817 332.04811464 127.1015625 333.57421875 C130.86746719 339.46381856 134.55547788 345.39823179 138.20703125 351.359375 C139.5718692 353.58278213 140.9443125 355.80153814 142.32421875 358.015625 C145.9072433 363.77576351 149.35067795 369.56390175 152.5546875 375.54296875 C154.74864851 379.61241256 157.00023609 383.64871718 159.25 387.6875 C160.12253857 389.25903534 160.9949376 390.83064817 161.8671875 392.40234375 C163.2188126 394.83664275 164.57678612 397.26652886 165.9453125 399.69140625 C170.10988175 407.1443922 173.69103168 414.84752359 177.27392578 422.59130859 C178.15807087 424.49007542 179.06042122 426.38033886 179.96484375 428.26953125 C193.41153437 456.46012265 205.84740434 486.77463477 211.25 517.6875 C211.45496094 518.8425 211.65992188 519.9975 211.87109375 521.1875 C215.41433616 544.64620838 214.85230041 567.88805457 203.9921875 589.23828125 C202.21604487 592.54695211 202.21604487 592.54695211 201.25 595.6875 C200.59 595.6875 199.93 595.6875 199.25 595.6875 C197.66030753 597.70541336 197.66030753 597.70541336 196.125 600.1875 C195.31675781 601.44046875 195.31675781 601.44046875 194.4921875 602.71875 C194.08226562 603.3684375 193.67234375 604.018125 193.25 604.6875 C197.0837609 605.78286026 198.68013729 605.99617563 202.25 604.0625 C205.29547328 601.65150032 208.31178715 599.22731111 211.25 596.6875 C211.83394531 596.19636719 212.41789062 595.70523437 213.01953125 595.19921875 C222.76654892 586.88149899 231.34324986 577.75883573 239.25 567.6875 C239.86617187 566.92695312 240.48234375 566.16640625 241.1171875 565.3828125 C252.35188858 551.35191915 261.0746891 535.12036889 268.25 518.6875 C265.49366701 517.20044902 262.97142711 516.35249584 259.9375 515.625 C254.08569377 513.65833036 251.05082465 510.09939154 248.25 504.6875 C241.57230807 484.51184004 246.35498486 463.37069606 255.25 444.6875 C258.51140339 438.64349499 262.03951285 433.22997598 267.25 428.6875 C268.1575 427.800625 269.065 426.91375 270 426 C273.9822629 423.16646678 277.48366747 422.39715396 282.25 421.6875 C281.59544178 382.17598535 270.23697246 342.17983352 253.25 306.6875 C252.57410105 305.21419218 251.8997745 303.74016253 251.2265625 302.265625 C246.7932474 292.62848599 242.04944408 283.58478377 236.25 274.6875 C235.42435547 273.36298828 235.42435547 273.36298828 234.58203125 272.01171875 C231.01739061 266.29643981 227.28121904 260.69846598 223.5 255.125 C223.02780029 254.42141357 222.55560059 253.71782715 222.0690918 252.99291992 C221.61832275 252.33396729 221.16755371 251.67501465 220.703125 250.99609375 C220.30254883 250.40626709 219.90197266 249.81644043 219.48925781 249.20874023 C218.14255941 247.40299953 218.14255941 247.40299953 215.25 245.6875 C214.81429688 246.09742188 214.37859375 246.50734375 213.9296875 246.9296875 C207.92802645 252.35976179 202.982658 254.15478529 194.87109375 253.92578125 C182.53384847 252.8042135 168.90185008 245.46547035 160.25 236.6875 C159.404375 235.883125 158.55875 235.07875 157.6875 234.25 C149.97972973 226.14695946 149.97972973 226.14695946 148.25 222.6875 C147.59 222.6875 146.93 222.6875 146.25 222.6875 C145.83427734 221.62595703 145.83427734 221.62595703 145.41015625 220.54296875 C144.64303571 218.65487071 143.83862739 216.78145503 142.99609375 214.92578125 C138.75782336 205.44976775 136.86239039 197.68094834 140.25 187.6875 C142.32467167 183.12322233 144.80210526 180.99087406 149.25 178.6875 C152.89075091 177.79987891 156.53786288 177.18949719 160.25 176.6875 C139.00599089 153.79347077 93.80414698 144.36815428 64.25 142.6875 C58.89509381 142.5302284 53.54413584 142.4910682 48.1875 142.5 C47.45845459 142.50093658 46.72940918 142.50187317 45.97827148 142.50283813 C-8.93883334 142.65538565 -66.98842233 161.06105897 -114.75 187.6875 Z M158.25 197.6875 C160.33272939 210.72210978 170.08351061 219.92437228 180.125 227.625 C185.43096058 231.20736829 191.0086247 232.56147868 197.25 233.6875 C196.50290556 225.84300835 191.8522647 220.99932436 186.6875 215.5 C186.20603516 214.97986328 185.72457031 214.45972656 185.22851562 213.92382812 C183.91040812 212.50418827 182.58067115 211.09537039 181.25 209.6875 C180.71117187 209.11257812 180.17234375 208.53765625 179.6171875 207.9453125 C177.66638931 206.15057817 175.38973394 204.99650068 173.07421875 203.734375 C171.25 202.6875 171.25 202.6875 168.25 200.5 C164.8438095 198.44209324 162.18473263 198.00227861 158.25 197.6875 Z M101.25 331.6875 C102.25 333.6875 102.25 333.6875 102.25 333.6875 Z M102.25 333.6875 C104.3972135 344.42356749 107.74526124 354.85975603 110.9921875 365.3046875 C114.32480044 376.05398026 117.36215582 386.75640784 119.80273438 397.74169922 C120.53041893 400.90744482 121.36840113 404.0443706 122.1875 407.1875 C125.009327 418.25158885 127.11323719 429.47517815 129.25 440.6875 C129.47236328 441.82614502 129.47236328 441.82614502 129.69921875 442.98779297 C130.70761728 448.20076409 131.50921744 453.43027561 132.25 458.6875 C132.41918945 459.84862305 132.58837891 461.00974609 132.76269531 462.20605469 C135.46306691 481.29782375 136.6335619 500.15173557 136.625 519.4375 C136.62672211 520.4311557 136.62844421 521.4248114 136.63021851 522.44857788 C136.62787428 534.36182329 136.07941136 545.90816058 134.25 557.6875 C134.10949219 558.66348145 133.96898437 559.63946289 133.82421875 560.64501953 C130.27419524 584.51631736 122.45890688 607.38695403 109.25 627.6875 C114.84269084 627.16954407 119.33014673 626.11811554 124.5625 623.9375 C125.21202637 623.66800537 125.86155273 623.39851074 126.53076172 623.12084961 C128.44260198 622.321854 130.34712095 621.50757352 132.25 620.6875 C133.22582031 620.27113281 134.20164062 619.85476563 135.20703125 619.42578125 C150.82414789 612.5432745 165.3545319 604.05788222 177.25 591.6875 C177.25 591.0275 177.25 590.3675 177.25 589.6875 C177.8275 589.47480469 178.405 589.26210938 179 589.04296875 C185.55291505 585.09529249 189.50907894 574.97239147 191.75 567.9375 C199.95779202 532.24826148 186.23202822 492.63960397 172.25634766 460.04589844 C171.18351649 457.53169439 170.14337116 455.00537187 169.10546875 452.4765625 C164.44474893 441.23002059 159.15307477 430.48451611 153.36523438 419.78027344 C151.80079989 416.84456145 150.33697596 413.86282466 148.875 410.875 C142.29186441 397.61535101 135.21843419 384.5563237 127.31640625 372.03515625 C124.1795382 366.95331141 121.23055398 361.76391663 118.28100586 356.5715332 C113.73949593 348.63837965 108.71014506 341.01969479 103.25 333.6875 C102.92 333.6875 102.59 333.6875 102.25 333.6875 Z M279.25 444.6875 C267.83669144 460.57200161 265.87276239 474.63700055 266.25 493.6875 C270.95723294 492.11842235 272.18815211 488.4566811 274.53515625 484.25390625 C278.80173298 475.3805929 280.4668904 466.23062057 281.125 456.5 C281.17446777 455.78110596 281.22393555 455.06221191 281.27490234 454.3215332 C281.44345612 450.57366429 281.36374236 447.85811354 279.25 444.6875 Z " fill="#959595" transform="translate(533.75,39.3125)"/>
<path d="M0 0 C9.75727967 8.20721016 14.89852247 17.090033 16.02734375 29.85546875 C16.47036322 43.74627284 13.10094495 54.88839934 3.7109375 65.27734375 C-6.90064745 75.21159349 -18.03802974 79.76659577 -32.5703125 79.5234375 C-43.73651395 78.7844977 -53.99808936 73.55119445 -61.6875 65.40625 C-69.97526185 54.38959095 -71.61681452 42.65501761 -70.2890625 29.27734375 C-68.45077783 21.5834885 -65.05415224 13.87336927 -59.2890625 8.27734375 C-58.6290625 8.27734375 -57.9690625 8.27734375 -57.2890625 8.27734375 C-57.05058594 7.68953125 -56.81210937 7.10171875 -56.56640625 6.49609375 C-52.25511178 -0.99263793 -42.16202264 -4.44824554 -34.2890625 -6.72265625 C-22.30866989 -9.59795048 -9.86190766 -7.42167454 0 0 Z M-40.2265625 18.58984375 C-40.9071875 19.47671875 -41.5878125 20.36359375 -42.2890625 21.27734375 C-43.18416713 22.2988161 -44.08001651 23.31963625 -44.9765625 24.33984375 C-50.18280359 30.95317703 -50.06937224 37.00220714 -49.2890625 45.27734375 C-47.81402257 48.86929987 -47.81402257 48.86929987 -45.2890625 51.27734375 C-44.1753125 52.63859375 -44.1753125 52.63859375 -43.0390625 54.02734375 C-38.14023291 58.03547705 -33.32748407 58.52562386 -27.2265625 58.08984375 C-19.40178736 57.01303983 -14.74275661 54.41558761 -9.796875 48.31640625 C-5.84957709 42.97835053 -4.10356903 37.90055168 -4.2890625 31.27734375 C-5.36047535 25.83173297 -7.25855572 21.19269319 -11.2890625 17.27734375 C-20.15488966 11.63545374 -31.89467653 12.03069947 -40.2265625 18.58984375 Z " fill="#949494" transform="translate(573.2890625,388.72265625)"/>
<path d="M0 0 C6.99086505 6.4518104 11.70296742 14.78612774 12.25 24.3125 C12.68639891 36.29363377 10.16119911 44.64573408 2.171875 53.65625 C-8.26195523 63.71476259 -21.16511038 66.81579198 -35.265625 66.55859375 C-49.20456298 65.57411719 -62.56136238 58.8162087 -71.75 48.3125 C-73.80953887 45.09961937 -75.35069773 41.85658436 -76.75 38.3125 C-77.183125 37.343125 -77.61625 36.37375 -78.0625 35.375 C-80.09300927 26.33000416 -78.9118009 17.59206157 -74.75 9.3125 C-72.01598618 5.68030836 -69.00880014 2.47527656 -65.75 -0.6875 C-65.31558594 -1.19925781 -64.88117187 -1.71101562 -64.43359375 -2.23828125 C-61.75133777 -4.54713732 -58.56908894 -5.85727801 -55.375 -7.3125 C-54.715 -7.62445313 -54.055 -7.93640625 -53.375 -8.2578125 C-35.65025519 -16.44932803 -14.99649782 -11.60802739 0 0 Z M-55.75 18.3125 C-58.08293772 22.1800612 -58.33537588 25.8840042 -57.75 30.3125 C-56.3851132 33.71491824 -56.3851132 33.71491824 -54.75 36.3125 C-54.09 36.3125 -53.43 36.3125 -52.75 36.3125 C-52.42 37.3025 -52.09 38.2925 -51.75 39.3125 C-44.70181747 44.8503577 -35.31300121 45.57968848 -26.578125 45.16015625 C-20.68348669 44.30527086 -15.96514846 42.62372022 -11.75 38.3125 C-8.64980089 34.01222382 -8.16454054 29.95820641 -8.3359375 24.77734375 C-9.24619334 19.35874531 -12.47990309 16.33409969 -16.625 13 C-29.45375155 6.07247416 -45.74971778 7.25813398 -55.75 18.3125 Z " fill="#959595" transform="translate(591.75,210.6875)"/>
<path d="M0 0 C6.67252787 5.18833441 10.11297585 12.71002129 12.7421875 20.59765625 C14.05828802 36.24092703 11.40822783 49.65260158 1.640625 62.36328125 C-5.81141858 71.13399921 -15.19632668 80.64618704 -27.29736328 81.79052734 C-47.7975698 82.55667323 -47.7975698 82.55667323 -56.5234375 74.5078125 C-63.72790892 66.92756829 -67.1537647 58.19314537 -67.296875 47.74609375 C-66.56922534 34.61374982 -62.14760692 23.04392037 -54.2578125 12.59765625 C-52.63094951 11.21603678 -50.96867203 9.87378917 -49.2578125 8.59765625 C-48.5359375 7.81390625 -47.8140625 7.03015625 -47.0703125 6.22265625 C-33.91881425 -6.05207545 -15.67878365 -9.73820646 0 0 Z M-36.3671875 23.2578125 C-42.54496858 30.90345479 -47.13259448 40.60246211 -46.2578125 50.59765625 C-45.30938473 54.4550677 -43.71279211 58.45318615 -40.2578125 60.59765625 C-34.46209888 62.0965477 -30.81959727 61.64699312 -25.48828125 58.94921875 C-17.20053398 53.92722128 -11.34238319 46.85136832 -8.2578125 37.59765625 C-8.08571444 35.14314291 -7.99122812 32.68276707 -7.9453125 30.22265625 C-7.90792969 28.91554688 -7.87054688 27.6084375 -7.83203125 26.26171875 C-8.31890334 22.07193874 -9.286475 20.52019441 -12.2578125 17.59765625 C-20.54016067 13.35547792 -30.00428714 17.1406339 -36.3671875 23.2578125 Z " fill="#959595" transform="translate(429.2578125,323.40234375)"/>
<path d="M0 0 C7.24700213 5.99085509 12.14635365 13.14592141 14.65625 22.25 C15.56589192 32.22062058 14.97918895 43.00268832 8.65625 51.25 C7.99625 51.25 7.33625 51.25 6.65625 51.25 C6.32173828 52.35988281 6.32173828 52.35988281 5.98046875 53.4921875 C3.13313895 59.42202479 -4.17797276 63.43700167 -10.03125 66.1875 C-21.86230991 69.98236827 -36.08927577 69.32352899 -47.40625 64.1875 C-59.06021452 57.78706869 -66.05118053 48.74386175 -70.01171875 36.12109375 C-71.77244431 26.19888736 -69.49412092 16.47185538 -63.83203125 8.1875 C-56.38409621 -1.50849942 -46.59050432 -7.36513581 -34.44140625 -9.50390625 C-21.73509406 -10.99459092 -10.21471377 -7.62698628 0 0 Z M-47.34375 21.25 C-49.89634704 25.31094983 -49.52276133 29.26783991 -48.9609375 33.87890625 C-48.05118585 37.37396481 -46.10318996 39.02898735 -43.34375 41.25 C-42.68375 42.24 -42.02375 43.23 -41.34375 44.25 C-33.31584582 47.93767621 -25.30240357 48.54156849 -17.03125 45.5625 C-11.98091579 43.33878695 -9.77997582 40.71210141 -7.03125 36 C-5.7886918 31.02976721 -6.50264817 26.25929882 -8.46875 21.5625 C-11.75190888 17.51327072 -15.34975746 13.91466418 -20.34375 12.25 C-22.96414714 12.07568787 -25.53437084 11.97315565 -28.15625 11.9375 C-28.85556641 11.90849609 -29.55488281 11.87949219 -30.27539062 11.84960938 C-37.84063127 11.75760925 -42.44979381 15.67632767 -47.34375 21.25 Z " fill="#959595" transform="translate(557.34375,559.75)"/>
<path d="M0 0 C10.53641873 10.05673876 15.71506269 22.41096629 16.3125 37 C15.78281669 48.95800199 11.63438851 58.69995823 2.8125 66.875 C-2.10777628 70.20451027 -7.20780981 72.48502021 -13.1875 72.875 C-14.363125 72.978125 -15.53875 73.08125 -16.75 73.1875 C-28.25077395 72.96717866 -37.0887236 67.81030404 -45.08203125 60.03125 C-55.44651905 49.01192528 -58.84929368 36.79492513 -58.5 22.078125 C-58.0212099 13.18060902 -54.4398137 5.22103147 -48.1875 -1.125 C-33.19608324 -14.04775449 -14.84715305 -12.45821263 0 0 Z M-34.1875 13.875 C-37.40913396 18.99595547 -38.04820672 24.98246939 -37.1875 30.875 C-35.12133128 38.57810083 -32.65920326 44.96689022 -25.5625 49.125 C-20.90390942 51.54056549 -18.5365546 52.40990546 -13.1875 51.875 C-9.41624021 49.73709762 -6.77019279 46.9140893 -5.1875 42.875 C-3.80597786 33.31061596 -5.86821845 25.86612251 -11.1875 17.875 C-15.26196257 13.23125124 -19.75798273 11.36493104 -25.8125 10.5 C-29.23408218 11.04024982 -31.32380321 11.8828631 -34.1875 13.875 Z " fill="#959595" transform="translate(757.1875,343.125)"/>
<path d="M0 0 C0 3 0 3 -1.19335938 4.53393555 C-1.73798828 5.062854 -2.28261719 5.59177246 -2.84375 6.13671875 C-3.72353516 7.00200195 -3.72353516 7.00200195 -4.62109375 7.88476562 C-5.24113281 8.47966797 -5.86117188 9.07457031 -6.5 9.6875 C-7.12003906 10.29400391 -7.74007813 10.90050781 -8.37890625 11.52539062 C-9.91264707 13.02373743 -11.45548198 14.51276493 -13 16 C-13.66 15.34 -14.32 14.68 -15 14 C-5.77448747 3.25740319 -5.77448747 3.25740319 0 0 Z " fill="#9F9F9F" transform="translate(514,44)"/>
<path d="M0 0 C0.33 0.99 0.66 1.98 1 3 C-1.05336006 5.13453242 -3.11680465 7.25739569 -5.1875 9.375 C-5.76564453 9.97828125 -6.34378906 10.5815625 -6.93945312 11.203125 C-10.08031481 14.39722163 -12.56898144 16.74829984 -17 18 C-11.72898586 11.58930713 -5.90871848 5.81409488 0 0 Z " fill="#9F9F9F" transform="translate(297,500)"/>
<path d="M0 0 C1.18955012 4.24678291 1.18382291 8.24190532 1.1875 12.625 C1.19974609 13.40101563 1.21199219 14.17703125 1.22460938 14.9765625 C1.22984167 16.98576362 1.12248735 18.99452914 1 21 C0.34 21.66 -0.32 22.32 -1 23 C-3.05795989 15.95871576 -4.09874587 8.59687994 -0.953125 1.70703125 C-0.63859375 1.14371094 -0.3240625 0.58039063 0 0 Z " fill="#828282" transform="translate(674,225)"/>
<path d="M0 0 C0.99 0.33 1.98 0.66 3 1 C0.71297091 3.48348017 -1.58038832 5.96102575 -3.875 8.4375 C-4.52597656 9.14455078 -5.17695312 9.85160156 -5.84765625 10.58007812 C-6.47285156 11.25361328 -7.09804688 11.92714844 -7.7421875 12.62109375 C-8.3182373 13.2442749 -8.89428711 13.86745605 -9.48779297 14.50952148 C-11 16 -11 16 -13 17 C-12.43920289 13.24182233 -10.92220209 11.62469769 -8.1875 9.0625 C-5.20046667 6.19344644 -2.49181635 3.3224218 0 0 Z " fill="#9D9D9D" transform="translate(767,613)"/>
<path d="M0 0 C4.32504836 1.65863505 7.09418825 4.871041 10.25 8.125 C11.08144531 8.96998047 11.08144531 8.96998047 11.9296875 9.83203125 C13.29104485 11.21686028 14.64614859 12.60783204 16 14 C15.67 14.66 15.34 15.32 15 16 C3.02325581 5.3255814 3.02325581 5.3255814 0 2 C0 1.34 0 0.68 0 0 Z " fill="#A4A4A4" transform="translate(742,228)"/>
<path d="M0 0 C0.66 0 1.32 0 2 0 C2.0825 0.61875 2.165 1.2375 2.25 1.875 C2.78010359 4.1408683 2.78010359 4.1408683 4.78125 4.9453125 C5.5134375 5.29335938 6.245625 5.64140625 7 6 C8.43957908 6.96672464 9.85658816 7.96784308 11.25 9 C11.95640625 9.515625 12.6628125 10.03125 13.390625 10.5625 C14.18726563 11.2740625 14.18726563 11.2740625 15 12 C15 12.66 15 13.32 15 14 C11.43322251 13.40952677 9.58466641 12.04264332 6.9375 9.625 C6.26589844 9.01914062 5.59429688 8.41328125 4.90234375 7.7890625 C3.96068359 6.90347656 3.96068359 6.90347656 3 6 C2.42378906 5.49210937 1.84757813 4.98421875 1.25390625 4.4609375 C0 3 0 3 0 0 Z " fill="#A3A3A3" transform="translate(708,396)"/>
<path d="M0 0 C1.5 1.375 1.5 1.375 3 3 C3 3.66 3 4.32 3 5 C8.94 6.485 8.94 6.485 15 8 C15 8.33 15 8.66 15 9 C4.93293886 9.78106509 4.93293886 9.78106509 1.3125 6.75 C0 4 0 4 0 0 Z " fill="#A3A3A3" transform="translate(420,721)"/>
<path d="M0 0 C0.33 0 0.66 0 1 0 C1.02717692 2.06242617 1.0464758 4.12495703 1.0625 6.1875 C1.07410156 7.33605469 1.08570313 8.48460937 1.09765625 9.66796875 C1.01192832 12.59300586 0.67849023 15.16316291 0 18 C-0.99 18 -1.98 18 -3 18 C-2.32418477 11.91766294 -1.26361972 5.98685848 0 0 Z " fill="#9C9C9C" transform="translate(666,597)"/>
<path d="M0 0 C-0.61488281 0.47050781 -1.22976563 0.94101562 -1.86328125 1.42578125 C-2.67152344 2.04839844 -3.47976563 2.67101562 -4.3125 3.3125 C-5.11300781 3.92738281 -5.91351563 4.54226563 -6.73828125 5.17578125 C-8.9757112 6.9028046 -8.9757112 6.9028046 -10.66796875 8.73046875 C-12 10 -12 10 -14 10 C-12.38092135 4.70119714 -9.4739213 2.52801022 -4.875 -0.3125 C-3 -1 -3 -1 0 0 Z " fill="#A0A0A0" transform="translate(393,325)"/>
<path d="M0 0 C-1.16587278 4.9549593 -4.16143168 7.02717993 -8.02734375 9.9609375 C-8.67832031 10.30382812 -9.32929687 10.64671875 -10 11 C-10.99 10.67 -11.98 10.34 -13 10 C-12.29875 9.46375 -11.5975 8.9275 -10.875 8.375 C-8.68248424 6.56379133 -6.77526246 4.78510014 -4.8125 2.75 C-2 0 -2 0 0 0 Z " fill="#A4A4A4" transform="translate(564,611)"/>
<path d="M0 0 C0.33 0 0.66 0 1 0 C1.02693575 2.12493141 1.04636628 4.24995912 1.0625 6.375 C1.07410156 7.55835938 1.08570313 8.74171875 1.09765625 9.9609375 C1 13 1 13 0 15 C-0.66 15 -1.32 15 -2 15 C-2.19392201 9.47322267 -1.7479503 5.24385089 0 0 Z " fill="#8A8A8A" transform="translate(311,364)"/>
<path d="M0 0 C0.66 0.33 1.32 0.66 2 1 C0.625 3.5 0.625 3.5 -1 6 C-1.66 6 -2.32 6 -3 6 C-3.433125 7.1446875 -3.433125 7.1446875 -3.875 8.3125 C-5 11 -5 11 -7 14 C-7.66 14 -8.32 14 -9 14 C-7.34966761 8.71893635 -3.90667286 3.90667286 0 0 Z " fill="#A3A3A3" transform="translate(347,261)"/>
<path d="M0 0 C0.99 0.33 1.98 0.66 3 1 C2.05125 1.70125 1.1025 2.4025 0.125 3.125 C-2.99854626 5.69603218 -4.07381296 8.01739573 -5 12 C-5.66 12 -6.32 12 -7 12 C-6.50958904 5.62465753 -6.50958904 5.62465753 -4.0625 2.625 C-2 1 -2 1 0 0 Z " fill="#828282" transform="translate(322,97)"/>
<path d="M0 0 C1.27310312 0.93441535 2.543388 1.87267111 3.8125 2.8125 C4.52019531 3.33457031 5.22789062 3.85664062 5.95703125 4.39453125 C7.79961207 5.84252498 9.46364869 7.23101505 11 9 C11 9.66 11 10.32 11 11 C6.296847 9.6167197 2.89806188 6.91387738 0 3 C0 2.01 0 1.02 0 0 Z " fill="#9F9F9F" transform="translate(392,652)"/>
<path d="M0 0 C0.33 0 0.66 0 1 0 C1 4.29 1 8.58 1 13 C0.01 13.495 0.01 13.495 -1 14 C-1.22226864 12.23086176 -1.42733873 10.45955629 -1.625 8.6875 C-1.74101562 7.70136719 -1.85703125 6.71523438 -1.9765625 5.69921875 C-2 3 -2 3 0 0 Z " fill="#7F7F7F" transform="translate(364,365)"/>
<path d="M0 0 C0 0.99 0 1.98 0 3 C-1.86328125 4.5703125 -1.86328125 4.5703125 -4.3125 6.125 C-5.11300781 6.64320313 -5.91351562 7.16140625 -6.73828125 7.6953125 C-9 9 -9 9 -12 10 C-12 9.01 -12 8.02 -12 7 C-11.21753906 6.57847656 -10.43507813 6.15695312 -9.62890625 5.72265625 C-8.61699219 5.17480469 -7.60507812 4.62695312 -6.5625 4.0625 C-5.55316406 3.51722656 -4.54382813 2.97195313 -3.50390625 2.41015625 C-1.13329507 1.22300532 -1.13329507 1.22300532 0 0 Z " fill="#9E9E9E" transform="translate(706,659)"/>
<path d="M0 0 C0.66 0.66 1.32 1.32 2 2 C0.35 5.3 -1.3 8.6 -3 12 C-3.99 12 -4.98 12 -6 12 C-4.43358249 7.69235185 -2.31663844 3.93828536 0 0 Z " fill="#A1A1A1" transform="translate(740,620)"/>
<path d="M0 0 C3.71547321 2.36439204 7.15425568 4.60699716 10 8 C10 8.99 10 9.98 10 11 C6.8510285 9.63088196 4.9521513 8.1247864 2.75 5.5 C2.22921875 4.8915625 1.7084375 4.283125 1.171875 3.65625 C0 2 0 2 0 0 Z " fill="#A4A4A4" transform="translate(554,558)"/>
<path d="M0 0 C0.66 0 1.32 0 2 0 C3.00508801 1.78881736 4.00392736 3.58114696 5 5.375 C5.8353125 6.87160156 5.8353125 6.87160156 6.6875 8.3984375 C8 11 8 11 8 13 C7.34 13 6.68 13 6 13 C4.99491199 11.21118264 3.99607264 9.41885304 3 7.625 C2.1646875 6.12839844 2.1646875 6.12839844 1.3125 4.6015625 C0 2 0 2 0 0 Z " fill="#A3A3A3" transform="translate(676,399)"/>
<path d="M0 0 C0.66 0.66 1.32 1.32 2 2 C-1.63 4.97 -5.26 7.94 -9 11 C-9 10.01 -9 9.02 -9 8 C-8.34 8 -7.68 8 -7 8 C-6.773125 7.4225 -6.54625 6.845 -6.3125 6.25 C-4.66961977 3.4336339 -2.60466773 1.91922886 0 0 Z " fill="#A7A7A7" transform="translate(523,389)"/>
<path d="M0 0 C0.33 0.99 0.66 1.98 1 3 C-1.97 5.97 -4.94 8.94 -8 12 C-8.99 11.67 -9.98 11.34 -11 11 C-10.54109375 10.62488281 -10.0821875 10.24976563 -9.609375 9.86328125 C-5.96703891 6.82545052 -2.82808093 3.84619007 0 0 Z " fill="#9E9E9E" transform="translate(429,384)"/>
<path d="M0 0 C0.99 0.33 1.98 0.66 3 1 C2.38125 1.2475 1.7625 1.495 1.125 1.75 C-1.4072196 3.23954094 -1.80718658 4.37581048 -3 7 C-4.4375 8.75 -4.4375 8.75 -6 10 C-6.99 10 -7.98 10 -9 10 C-7.73205551 6.19616653 -6.35546712 5.99730186 -3 4 C-1.21655822 1.93045153 -1.21655822 1.93045153 0 0 Z " fill="#ACACAC" transform="translate(614,670)"/>
<path d="M0 0 C1.90608098 3.21182149 2.22266247 5.53882603 2.125 9.25 C2.10695313 10.14203125 2.08890625 11.0340625 2.0703125 11.953125 C2.04710937 12.62859375 2.02390625 13.3040625 2 14 C1.01 13.67 0.02 13.34 -1 13 C-1.02686553 11.02090602 -1.04633375 9.04171029 -1.0625 7.0625 C-1.07410156 5.96035156 -1.08570313 4.85820313 -1.09765625 3.72265625 C-1 1 -1 1 0 0 Z " fill="#A3A3A3" transform="translate(798,517)"/>
<path d="M0 0 C3.44164469 1.52961986 6.09151758 3.62729066 9 6 C9.66 6.33 10.32 6.66 11 7 C11 7.66 11 8.32 11 9 C7.66864109 8.40300869 5.78724333 7.27987719 3.25 5.0625 C2.63640625 4.53785156 2.0228125 4.01320313 1.390625 3.47265625 C0 2 0 2 0 0 Z " fill="#A6A6A6" transform="translate(370,393)"/>
<path d="M0 0 C2.97 0 5.94 0 9 0 C9.33 0.99 9.66 1.98 10 3 C6.37 3 2.74 3 -1 3 C-0.67 2.01 -0.34 1.02 0 0 Z " fill="#A5A5A5" transform="translate(545,381)"/>
<path d="M0 0 C0.08096803 1.45742463 0.13917774 2.91612807 0.1875 4.375 C0.22230469 5.18710937 0.25710938 5.99921875 0.29296875 6.8359375 C0.19628906 7.55007813 0.09960938 8.26421875 0 9 C-0.99 9.66 -1.98 10.32 -3 11 C-3 7.7 -3 4.4 -3 1 C-1 0 -1 0 0 0 Z " fill="#A1A1A1" transform="translate(313,354)"/>
<path d="M0 0 C7.48291572 6.15034169 7.48291572 6.15034169 10 10 C7 10 7 10 5.3125 8.625 C4 7 4 7 4 5 C2.68 4.34 1.36 3.68 0 3 C0 2.01 0 1.02 0 0 Z " fill="#9E9E9E" transform="translate(297,244)"/>
<path d="M0 0 C0.33 0 0.66 0 1 0 C1.02712066 1.43739513 1.04645067 2.87493863 1.0625 4.3125 C1.07410156 5.11300781 1.08570313 5.91351563 1.09765625 6.73828125 C1 9 1 9 0 12 C-0.66 12 -1.32 12 -2 12 C-2.17835515 7.45194365 -1.99785435 4.1205746 0 0 Z " fill="#8E8E8E" transform="translate(836,491)"/>
<path d="M0 0 C3 1 3 1 4.203125 2.7421875 C4.54859375 3.44601562 4.8940625 4.14984375 5.25 4.875 C5.60578125 5.57367188 5.9615625 6.27234375 6.328125 6.9921875 C7 9 7 9 6 12 C4.02433812 10.02433812 3.10420928 8.47662906 1.875 6 C1.52179687 5.29875 1.16859375 4.5975 0.8046875 3.875 C0 2 0 2 0 0 Z " fill="#9B9B9B" transform="translate(713,470)"/>
<path d="M0 0 C0.99 0.33 1.98 0.66 3 1 C1.71034824 2.37562854 0.37310707 3.70766393 -1 5 C-1.66 5 -2.32 5 -3 5 C-3 5.66 -3 6.32 -3 7 C-3.66 7 -4.32 7 -5 7 C-5.33 7.66 -5.66 8.32 -6 9 C-5.70381606 5.44579276 -5.19662957 4.19662957 -2.625 1.625 C-1.325625 0.820625 -1.325625 0.820625 0 0 Z " fill="#A7A7A7" transform="translate(713,339)"/>
<path d="M0 0 C0.66 0.33 1.32 0.66 2 1 C-3 7.57142857 -3 7.57142857 -8 9 C-6.4169423 4.7257442 -3.49431596 2.73468206 0 0 Z " fill="#AFAFAF" transform="translate(269,497)"/>
<path d="M0 0 C4.21422242 2.88341534 5.76075855 5.04303419 7 10 C2.57320993 8.52440331 2.08567304 6.09942632 0 2 C0 1.34 0 0.68 0 0 Z " fill="#9C9C9C" transform="translate(546,150)"/>
<path d="M0 0 C0.33 0 0.66 0 1 0 C1 3.3 1 6.6 1 10 C0.34 10 -0.32 10 -1 10 C-1.33 7.36 -1.66 4.72 -2 2 C-1.34 2 -0.68 2 0 2 C0 1.34 0 0.68 0 0 Z " fill="#868686" transform="translate(670,571)"/>
<path d="M0 0 C0.98726527 2.66561622 1.0275526 3.90126985 0.25 6.6875 C-1 9 -1 9 -4 10 C-3.43454163 6.04179141 -2.19097652 3.3340947 0 0 Z " fill="#9C9C9D" transform="translate(819,565)"/>
<path d="M0 0 C0.66 0.33 1.32 0.66 2 1 C1.01 4.96 0.02 8.92 -1 13 C-1.33 13 -1.66 13 -2 13 C-2.19294408 8.17639811 -1.75747614 4.50353262 0 0 Z " fill="#898989" transform="translate(828,537)"/>
<path d="M0 0 C0.66 0.33 1.32 0.66 2 1 C1.67 3.64 1.34 6.28 1 9 C0.01 9 -0.98 9 -2 9 C-1.125 1.125 -1.125 1.125 0 0 Z " fill="#A2A2A2" transform="translate(831,524)"/>
<path d="M0 0 C1.96301592 3.50538557 2.95902388 7.13351728 4 11 C3.01 11 2.02 11 1 11 C-1.125 3.375 -1.125 3.375 0 0 Z " fill="#ACACAC" transform="translate(729,503)"/>
<path d="M0 0 C0.66 0.66 1.32 1.32 2 2 C0.02 4.64 -1.96 7.28 -4 10 C-4.33 9.01 -4.66 8.02 -5 7 C-4.00390625 5.17578125 -4.00390625 5.17578125 -2.5625 3.3125 C-2.08941406 2.68988281 -1.61632812 2.06726563 -1.12890625 1.42578125 C-0.75636719 0.95527344 -0.38382813 0.48476563 0 0 Z " fill="#A5A5A5" transform="translate(566,432)"/>
<path d="M0 0 C1.4540625 0.0309375 1.4540625 0.0309375 2.9375 0.0625 C2.9375 0.7225 2.9375 1.3825 2.9375 2.0625 C4.5875 2.0625 6.2375 2.0625 7.9375 2.0625 C7.9375 2.3925 7.9375 2.7225 7.9375 3.0625 C6.31286158 3.11645478 4.68771459 3.15527195 3.0625 3.1875 C2.15757812 3.21070313 1.25265625 3.23390625 0.3203125 3.2578125 C-2.0625 3.0625 -2.0625 3.0625 -4.0625 1.0625 C-3.0625 0.0625 -3.0625 0.0625 0 0 Z " fill="#8B8B8B" transform="translate(583.0625,700.9375)"/>
<path d="M0 0 C0.66 0.66 1.32 1.32 2 2 C0.02 4.31 -1.96 6.62 -4 9 C-4.66 8.34 -5.32 7.68 -6 7 C-4.02 4.69 -2.04 2.38 0 0 Z " fill="#A0A0A0" transform="translate(731,635)"/>
<path d="M0 0 C0.66 0.33 1.32 0.66 2 1 C0.71937515 2.7074998 -0.61767557 4.37373596 -2 6 C-2.66 6 -3.32 6 -4 6 C-4 6.99 -4 7.98 -4 9 C-4.66 9 -5.32 9 -6 9 C-5.69381595 5.32579134 -5.24228216 4.21864487 -2.4375 1.6875 C-1.633125 1.130625 -0.82875 0.57375 0 0 Z " fill="#9E9E9E" transform="translate(721,619)"/>
<path d="M0 0 C0 3 0 3 -2.25 5.5625 C-4.51797524 7.57275078 -6.23189141 8.87225206 -9 10 C-9 9.34 -9 8.68 -9 8 C-7.3603279 6.63360658 -5.68889872 5.3050581 -4 4 C-2.64852862 2.68505488 -1.30887458 1.35735142 0 0 Z " fill="#A5A5A5" transform="translate(551,596)"/>
<path d="M0 0 C1.258125 0.12375 2.51625 0.2475 3.8125 0.375 C4.87404297 0.47941406 4.87404297 0.47941406 5.95703125 0.5859375 C8 1 8 1 11 3 C11 3.66 11 4.32 11 5 C9.53932801 4.54917531 8.08151968 4.08906463 6.625 3.625 C5.81289063 3.36976563 5.00078125 3.11453125 4.1640625 2.8515625 C2 2 2 2 0 0 Z " fill="#9B9B9B" transform="translate(542,554)"/>
<path d="M0 0 C0.66 0 1.32 0 2 0 C0.55746343 3.36591866 -1.33264727 5.51047079 -4 8 C-4.99 7.67 -5.98 7.34 -7 7 C-5.625 5.5 -5.625 5.5 -4 4 C-3.34 4 -2.68 4 -2 4 C-1.34 2.68 -0.68 1.36 0 0 Z " fill="#A4A4A4" transform="translate(304,425)"/>
<path d="M0 0 C0.66 0 1.32 0 2 0 C2.66 2.97 3.32 5.94 4 9 C3.01 9.495 3.01 9.495 2 10 C0.68373308 6.38026598 0 3.90432869 0 0 Z " fill="#A4A4A4" transform="translate(821,382)"/>
<path d="M0 0 C3.36179774 1.44077046 5.59156268 3.24750021 8 6 C8 6.66 8 7.32 8 8 C4.63820226 6.55922954 2.40843732 4.75249979 0 2 C0 1.34 0 0.68 0 0 Z " fill="#868686" transform="translate(716,249)"/>
<path d="M0 0 C0.99 0.33 1.98 0.66 3 1 C0.03 4.96 0.03 4.96 -3 9 C-3.33 7.68 -3.66 6.36 -4 5 C-2.0625 2.25 -2.0625 2.25 0 0 Z " fill="#A6A6A6" transform="translate(521,215)"/>
<path d="M0 0 C3.59391114 1.33488128 6.75490696 2.96022723 10 5 C7 6 7 6 5.17578125 5.22265625 C3.45052083 4.1484375 1.72526042 3.07421875 0 2 C0 1.34 0 0.68 0 0 Z " fill="#9D9D9D" transform="translate(477,673)"/>
<path d="M0 0 C0.33 0.99 0.66 1.98 1 3 C-3.75 6 -3.75 6 -6 6 C-6 5.01 -6 4.02 -6 3 C-4.02 2.01 -2.04 1.02 0 0 Z " fill="#9E9E9E" transform="translate(685,650)"/>
<path d="M0 0 C-1.49097658 3.7952131 -3.75700849 5.61042731 -7 8 C-7 5 -7 5 -4.625 2.3125 C-2 0 -2 0 0 0 Z " fill="#A6A6A6" transform="translate(706,636)"/>
<path d="M0 0 C0.66 0.33 1.32 0.66 2 1 C0.02 3.31 -1.96 5.62 -4 8 C-4.33 7.01 -4.66 6.02 -5 5 C-3.35 3.35 -1.7 1.7 0 0 Z " fill="#A9A9A9" transform="translate(776,603)"/>
<path d="M0 0 C1.1875 1.6875 1.1875 1.6875 2 4 C0.625 6.75 0.625 6.75 -1 9 C-1.66 8.67 -2.32 8.34 -3 8 C-1.125 2.25 -1.125 2.25 0 0 Z " fill="#8C8C8C" transform="translate(789,482)"/>
<path d="M0 0 C0.598125 0.20625 1.19625 0.4125 1.8125 0.625 C-0.1675 1.945 -2.1475 3.265 -4.1875 4.625 C-4.5175 3.635 -4.8475 2.645 -5.1875 1.625 C-2.1875 -0.375 -2.1875 -0.375 0 0 Z " fill="#9B9B9B" transform="translate(310.1875,422.375)"/>
<path d="M0 0 C0.99 0.33 1.98 0.66 3 1 C1.02 3.31 -0.96 5.62 -3 8 C-3.66 7.67 -4.32 7.34 -5 7 C-3.35 4.69 -1.7 2.38 0 0 Z " fill="#A5A5A5" transform="translate(766,398)"/>
<path d="M0 0 C0.99 0.33 1.98 0.66 3 1 C1.90716423 2.03295436 0.80029421 3.05107835 -0.3125 4.0625 C-0.92738281 4.63097656 -1.54226563 5.19945312 -2.17578125 5.78515625 C-2.77777344 6.18605469 -3.37976563 6.58695312 -4 7 C-4.99 6.67 -5.98 6.34 -7 6 C-5.90716423 4.96704564 -4.80029421 3.94892165 -3.6875 2.9375 C-3.07261719 2.36902344 -2.45773437 1.80054688 -1.82421875 1.21484375 C-0.92123047 0.61349609 -0.92123047 0.61349609 0 0 Z " fill="#9E9E9E" transform="translate(398,341)"/>
<path d="M0 0 C5.57142857 5.14285714 5.57142857 5.14285714 6 9 C2.70851757 7.86500606 2.0040131 7.00716624 0.25 3.875 C-0.1625 2.92625 -0.575 1.9775 -1 1 C-0.67 0.67 -0.34 0.34 0 0 Z " fill="#8F8F8F" transform="translate(622,315)"/>
<path d="M0 0 C0.33 0.99 0.66 1.98 1 3 C-5.75 7 -5.75 7 -8 7 C-8 6.34 -8 5.68 -8 5 C-7.01 5 -6.02 5 -5 5 C-5 4.34 -5 3.68 -5 3 C-2.5 1.375 -2.5 1.375 0 0 Z " fill="#888888" transform="translate(587,266)"/>
<path d="M0 0 C-1 3 -1 3 -3.4375 4.75 C-4.7059375 5.36875 -4.7059375 5.36875 -6 6 C-6.66 5.67 -7.32 5.34 -8 5 C-3.375 0 -3.375 0 0 0 Z " fill="#9F9F9F" transform="translate(697,644)"/>
<path d="M0 0 C0.66 0.66 1.32 1.32 2 2 C-1.465 4.97 -1.465 4.97 -5 8 C-5.66 7.67 -6.32 7.34 -7 7 C-4.69 4.69 -2.38 2.38 0 0 Z " fill="#A5A5A5" transform="translate(287,510)"/>
<path d="M0 0 C0.99 0.495 0.99 0.495 2 1 C2.4140625 3.06640625 2.4140625 3.06640625 2.625 5.5625 C2.69976563 6.38878906 2.77453125 7.21507812 2.8515625 8.06640625 C2.92503906 9.02353516 2.92503906 9.02353516 3 10 C1.51171875 8.73046875 1.51171875 8.73046875 0 7 C-0.1875 3.3125 -0.1875 3.3125 0 0 Z " fill="#A5A5A5" transform="translate(639,387)"/>
<path d="M0 0 C0.33 0.99 0.66 1.98 1 3 C-1.97 5.475 -1.97 5.475 -5 8 C-5.33 7.01 -5.66 6.02 -6 5 C-4.02 3.35 -2.04 1.7 0 0 Z " fill="#9D9D9D" transform="translate(594,260)"/>
<path d="M0 0 C2.3125 0.1875 2.3125 0.1875 4 1 C-0.39453125 5.00390625 -0.39453125 5.00390625 -2 6 C-2.99 5.67 -3.98 5.34 -5 5 C-2.75 2.4375 -2.75 2.4375 0 0 Z " fill="#8F8F8F" transform="translate(248,222)"/>
<path d="M0 0 C0 0.66 0 1.32 0 2 C-2.95664519 3.4783226 -5.74229737 3.06032783 -9 3 C-6.40821726 0.40821726 -3.54324677 -1.77162338 0 0 Z " fill="#A6A6A6" transform="translate(630,695)"/>
<path d="M0 0 C2.04119788 1.61594832 4.04072937 3.2856382 6 5 C6 5.66 6 6.32 6 7 C2.63408134 5.55746343 0.48952921 3.66735273 -2 1 C-1.34 0.67 -0.68 0.34 0 0 Z " fill="#8B8B8B" transform="translate(544,574)"/>
<path d="M0 0 C0.66 0 1.32 0 2 0 C1.67 2.31 1.34 4.62 1 7 C0.01 7 -0.98 7 -2 7 C-1.125 1.125 -1.125 1.125 0 0 Z " fill="#A6A6A6" transform="translate(800,506)"/>
<path d="M0 0 C2.83374881 3.20336822 3.5205537 5.78087253 4 10 C1.74754119 7.31158141 0.11786042 5.35358125 -1 2 C-0.67 1.34 -0.34 0.68 0 0 Z " fill="#9E9E9E" transform="translate(705,450)"/>
<path d="M0 0 C1.0326802 2.78823655 1.04509293 3.8677274 0.0625 6.75 C-0.288125 7.4925 -0.63875 8.235 -1 9 C-2.1875 7.3125 -2.1875 7.3125 -3 5 C-1.625 2.25 -1.625 2.25 0 0 Z " fill="#9E9E9E" transform="translate(289,447)"/>
<path d="M0 0 C2.86697492 1.28519565 4.97607712 2.57129254 7 5 C7 5.66 7 6.32 7 7 C4.13302508 5.71480435 2.02392288 4.42870746 0 2 C0 1.34 0 0.68 0 0 Z " fill="#9F9F9F" transform="translate(526,439)"/>
<path d="M0 0 C-3.44069624 2.29379749 -4.72290301 3 -9 3 C-9 2.34 -9 1.68 -9 1 C-3.375 -1.125 -3.375 -1.125 0 0 Z " fill="#9D9D9D" transform="translate(404,320)"/>
<path d="M0 0 C0.66 0.33 1.32 0.66 2 1 C0.68 3.64 -0.64 6.28 -2 9 C-2.66 9 -3.32 9 -4 9 C-2.94124926 5.59687262 -1.99097846 2.98646769 0 0 Z " fill="#9C9C9C" transform="translate(345,300)"/>
<path d="M0 0 C0.66 0.99 1.32 1.98 2 3 C-2.43076923 5.09230769 -2.43076923 5.09230769 -5.3125 4.625 C-5.869375 4.41875 -6.42625 4.2125 -7 4 C-4.69 2.68 -2.38 1.36 0 0 Z " fill="#A2A2A2" transform="translate(683,672)"/>
<path d="M0 0 C0.66 0.66 1.32 1.32 2 2 C-0.64 3.98 -3.28 5.96 -6 8 C-4.21844267 4.43688534 -2.83236991 2.64354525 0 0 Z " fill="#A2A2A2" transform="translate(743,636)"/>
<path d="M0 0 C0.33 0.99 0.66 1.98 1 3 C-0.8125 5.6875 -0.8125 5.6875 -3 8 C-3.66 8 -4.32 8 -5 8 C-3.62845496 5.04590299 -2.01136276 2.55991624 0 0 Z " fill="#9F9F9F" transform="translate(799,603)"/>
<path d="M0 0 C0.33 0 0.66 0 1 0 C1.33 3.96 1.66 7.92 2 12 C1.01 11.67 0.02 11.34 -1 11 C-0.67 7.37 -0.34 3.74 0 0 Z " fill="#7F7F7F" transform="translate(649,580)"/>
<path d="M0 0 C1.07349791 4.29399165 0.79682816 5.19495213 -1 9 C-1.99 8.67 -2.98 8.34 -4 8 C-2.68 5.36 -1.36 2.72 0 0 Z " fill="#9D9D9D" transform="translate(753,382)"/>
<path d="M0 0 C0.66 0 1.32 0 2 0 C0.375 5.75 0.375 5.75 -3 8 C-2.45276317 4.62537285 -1.9451 2.91765 0 0 Z " fill="#9D9D9D" transform="translate(435,374)"/>
<path d="M0 0 C0.99 0.495 0.99 0.495 2 1 C2.59355614 3.64860427 2.74209269 6.29197322 3 9 C2.34 9 1.68 9 1 9 C0.67 6.03 0.34 3.06 0 0 Z " fill="#A1A1A1" transform="translate(604,340)"/>
<path d="M0 0 C3 1 3 1 4.25 3.3125 C5 6 5 6 4 10 C2.68 6.7 1.36 3.4 0 0 Z " fill="#A0A0A0" transform="translate(324,280)"/>
<path d="M0 0 C3.42298577 1.14099526 4.14758766 2.00085621 6 5 C6 5.99 6 6.98 6 8 C5.34 8 4.68 8 4 8 C0 2.58823529 0 2.58823529 0 0 Z " fill="#9E9E9E" transform="translate(276,257)"/>
<path d="M0 0 C3.79588866 0.54226981 5.47211993 2.20127563 8 5 C4.62537285 4.45276317 2.91765 3.9451 0 2 C0 1.34 0 0.68 0 0 Z " fill="#A1A1A1" transform="translate(686,209)"/>
<path d="M0 0 C0.66 0.66 1.32 1.32 2 2 C1.34 3.98 0.68 5.96 0 8 C-0.99 7.67 -1.98 7.34 -3 7 C-2.01 4.69 -1.02 2.38 0 0 Z " fill="#818181" transform="translate(489,73)"/>
<path d="M0 0 C0.66 0.99 1.32 1.98 2 3 C0.68 4.65 -0.64 6.3 -2 8 C-2.33 7.01 -2.66 6.02 -3 5 C-1.5625 2.3125 -1.5625 2.3125 0 0 Z " fill="#818181" transform="translate(633,642)"/>
<path d="M0 0 C0.99 0.33 1.98 0.66 3 1 C1.35 2.65 -0.3 4.3 -2 6 C-2 2 -2 2 0 0 Z " fill="#858585" transform="translate(785,621)"/>
<path d="M0 0 C0.66 0 1.32 0 2 0 C1.67 2.64 1.34 5.28 1 8 C0.34 8 -0.32 8 -1 8 C-0.67 5.36 -0.34 2.72 0 0 Z " fill="#A2A2A2" transform="translate(812,509)"/>
<path d="M0 0 C0 3 0 3 -2 5.1875 C-2.66 5.785625 -3.32 6.38375 -4 7 C-4.99 6.67 -5.98 6.34 -7 6 C-5.68 5.34 -4.36 4.68 -3 4 C-3 3.34 -3 2.68 -3 2 C-2.01 1.34 -1.02 0.68 0 0 Z " fill="#9B9B9B" transform="translate(574,453)"/>
<path d="M0 0 C1.65 1.65 3.3 3.3 5 5 C4.67 5.99 4.34 6.98 4 8 C2 6.25 2 6.25 0 4 C0 2.68 0 1.36 0 0 Z " fill="#9B9B9B" transform="translate(760,347)"/>
<path d="M0 0 C-0.1875 1.875 -0.1875 1.875 -1 4 C-3.5625 5.25 -3.5625 5.25 -6 6 C-4.90218919 2.70656758 -3.7827394 0 0 0 Z " fill="#8F8F8F" transform="translate(792,296)"/>
<path d="M0 0 C2.64 0.66 5.28 1.32 8 2 C7.67 2.99 7.34 3.98 7 5 C4.69 4.01 2.38 3.02 0 2 C0 1.34 0 0.68 0 0 Z " fill="#A5A5A5" transform="translate(712,287)"/>
<path d="M0 0 C2.97 0.495 2.97 0.495 6 1 C6 1.99 6 2.98 6 4 C4.02 3.34 2.04 2.68 0 2 C0 1.34 0 0.68 0 0 Z " fill="#818181" transform="translate(671,201)"/>
</svg>
