<svg xmlns="http://www.w3.org/2000/svg" width="256" height="256" viewBox="0 0 256 256" fill="none">
<path d="M 106.92,34.24 C 109.53,24.72 112.18,15.16 120.89,10.07 C 124.97,7.61 127.19,10.07 125.34,12.19 C 122.88,15.16 117.18,16.03 114.22,22.04 C 111.98,26.77 110.23,31.73 109.01,36.83 L 106.92,34.24 Z" fill="url(#paint0_linear_1812_10231)"/>
<path d="M 81.83,44.09 C 74.11,36.08 66.92,35.05 58.62,34.31 C 52.18,33.75 50.24,33.02 50.73,31.76 C 52.46,27.71 61.19,29.18 68.11,32.48 C 73.9,35.27 79.17,38.22 82.91,42.07 L 81.83,44.09 Z" fill="url(#paint1_linear_1812_10231)"/>
<path d="M 139.42,51.66 C 136.4,39.99 123.31,32.05 108.41,31.39 C 89.11,30.51 72.03,43.81 67.26,59.84 C 64.99,67.41 65.72,75.07 69.41,80.01 L 139.42,51.66 Z" fill="url(#paint2_radial_1812_10231)"/>
<path d="M 54.27,105.22 C 50.24,103.17 44.51,98.91 41.71,92.03 C 37.91,82.35 33.27,80.23 27.76,77.7 C 24.28,76.14 25.11,72.11 29.69,72.6 C 35.84,73.21 40.23,77.46 46.97,84.08 C 53.71,90.69 55.11,97.13 55.11,100.93 C 55.11,102.76 55.25,103.91 54.27,105.22 Z" fill="url(#paint3_linear_1812_10231)"/>
<path d="M 49.75,141.53 C 45.27,143.26 40.88,148.96 39.15,157.97 C 37.28,167.72 32.82,171.13 27.64,173.79 C 25.52,174.85 26.34,178.33 29.78,177.72 C 37.91,176.25 47.71,165.19 49.32,157.18 C 50.12,153.21 50.41,147.86 49.75,141.53 Z" fill="url(#paint4_linear_1812_10231)"/>
<path d="M 73.6,206.59 C 71.19,212.81 73.84,220.66 83.31,226.28 C 87.97,229.12 87.81,230.78 86.71,239.62 C 86.22,243.65 86.02,246.78 88.78,248.01 C 90.31,248.71 92.52,247.42 93.01,244.06 C 95.21,232.67 95.21,228.02 88.33,221.71 C 83.64,217.23 77.71,211.34 73.6,206.59 Z" fill="url(#paint5_linear_1812_10231)"/>
<path d="M 213.91,98.01 C 215.91,97.13 215.08,94.78 213.87,93.47 C 197.18,68.99 173.56,51.17 142.14,51.41 C 121.92,51.57 90.06,61.32 73.12,74.23 C 57.09,86.36 50.01,102.64 49.08,129.11 C 47.62,172.41 79.81,236.79 146.06,238.91 C 160.68,239.39 166.71,230.62 170.94,217.71 C 179.71,219.02 185.22,222.32 194.77,226.28 C 196.54,227.04 225.92,207.08 229.57,170.91 C 232.18,143.51 222.87,116.11 211.42,98.69 C 211.26,98.37 212.61,98.69 213.91,98.01 Z" fill="url(#paint6_radial_1812_10231)"/>
<path opacity="0.2" d="M 193.09,77.82 C 196.33,78.61 201.22,86.89 202.39,89.41 C 203.13,91.06 197.18,92.87 193.92,94.18 C 183.72,98.37 176.94,108.89 180.06,120.03 C 184.25,135.13 189.91,146.39 190.27,149.91 C 190.72,154.48 187.88,158.21 189.63,161.05 C 193.91,167.96 200.11,183.18 201.7,192.41 C 203.98,205.32 198.16,219.42 193.91,225.71 C 193.09,226.92 192.26,226.6 192.26,224.55 C 192.26,220.91 195.42,215.73 195.58,204.06 C 195.82,181.13 173.07,140.02 165.91,127.85 C 160.01,117.93 150.78,101.41 148.13,97.29 C 147.12,95.64 147.08,98.01 147.72,101.33 C 150.08,113.01 160.97,136.95 167.08,165.22 C 173.74,196.13 168.73,219.42 153.41,235.19 C 151.86,236.84 156.48,235.68 159.28,234.8 C 173.9,231.76 184.25,226.72 193.42,214.81 C 203.09,202.26 195.98,178.85 189.91,161.17 C 188.32,156.39 190.11,150.15 190.93,150.23 C 192.97,150.47 200.77,174.16 201.7,186.21 C 203.01,203.66 199.13,212.81 195.18,218.07 C 194.28,219.34 196.74,224.71 197.83,223.58 C 211.92,210.91 225.8,197.18 229.37,170.03 C 232.33,148.14 222.87,116.91 206.92,93.11 C 202.77,86.97 194.16,77.78 193.09,77.82 Z" fill="url(#paint7_linear_1812_10231)"/>
<path d="M 148.33,76.7 C 148.33,85.18 143.52,89.41 136.52,89.29 C 126.72,89.09 120.06,83.71 120.06,76.7 C 120.06,69.27 127.12,64.78 134.41,64.78 C 143.68,64.78 148.33,69.51 148.33,76.7 Z" fill="url(#paint8_linear_1812_10231)"/>
<path d="M 91.85,116.59 C 90.88,126.27 84.83,133.81 76.33,133.61 C 69.17,133.37 67.12,126.07 69.01,118.94 C 71.23,110.42 77.79,107.04 83.64,107.16 C 89.94,107.32 92.48,111.11 91.85,116.59 Z" fill="url(#paint9_linear_1812_10231)"/>
<path d="M 143.48,141.21 C 143.48,150.89 135.68,156.07 129.18,155.83 C 120.42,155.47 116.11,149.71 116.31,143.18 C 116.68,133.93 124.32,128.25 132.12,128.53 C 139.18,128.77 143.48,134.17 143.48,141.21 Z" fill="url(#paint10_linear_1812_10231)"/>
<path d="M 137.21,200.02 C 136.32,208.26 129.78,211.44 124.32,211.32 C 115.83,211.12 111.35,205.24 111.35,199.94 C 111.67,191.42 117.78,188.28 124.12,188.28 C 132.12,188.28 137.85,194.16 137.21,200.02 Z" fill="url(#paint11_linear_1812_10231)"/>
<path d="M 206.92,125.91 C 206.92,133.49 202.97,137.23 197.83,137.03 C 189.34,136.68 185.87,129.02 185.87,123.16 C 185.87,116.11 189.91,111.83 195.22,111.83 C 202.93,111.83 206.92,119.71 206.92,125.91 Z" fill="url(#paint12_linear_1812_10231)"/>
<path d="M 226.28,163.21 C 225.79,171.21 221.72,184.95 218.24,185.07 C 214.76,185.19 215.01,176.61 217.07,168.68 C 218.92,161.13 221.68,157.97 224.25,157.97 C 226.28,157.97 226.56,160.01 226.28,163.21 Z" fill="url(#paint13_linear_1812_10231)"/>
<path d="M 147.68,96.61 C 146.06,96.12 148.78,105.42 150.41,110.06 C 156.22,127.28 165.79,150.27 169.13,176.61 C 172.79,205.48 164.66,223.71 153.93,235.12 C 152.26,237.03 162.02,234.59 165.18,233.71 C 176.01,230.41 185.71,226.16 194.28,213.91 C 202.81,201.66 194.28,176.25 187.66,161.65 C 179.78,143.62 151.06,97.77 147.68,96.61 Z" fill="url(#paint14_linear_1812_10231)"/>
<defs>
<linearGradient id="paint0_linear_1812_10231" x1="116.439" y1="9.00012" x2="116.439" y2="36.8291" gradientUnits="userSpaceOnUse">
<stop stop-color="#0A1214"/>
<stop offset="1" stop-color="#3A474C"/>
</linearGradient>
<linearGradient id="paint1_linear_1812_10231" x1="66.6926" y1="30.2656" x2="66.6926" y2="44.0872" gradientUnits="userSpaceOnUse">
<stop stop-color="#0A1214"/>
<stop offset="1" stop-color="#3A474C"/>
</linearGradient>
<radialGradient id="paint2_radial_1812_10231" cx="0" cy="0" r="1" gradientUnits="userSpaceOnUse" gradientTransform="translate(100.808 37.1542) scale(36.0981 30.8173)">
<stop stop-color="#59646D"/>
<stop offset="1" stop-color="#283236"/>
</radialGradient>
<linearGradient id="paint3_linear_1812_10231" x1="40.7119" y1="72.5371" x2="40.7119" y2="105.222" gradientUnits="userSpaceOnUse">
<stop stop-color="#0A1214"/>
<stop offset="1" stop-color="#3A474C"/>
</linearGradient>
<linearGradient id="paint4_linear_1812_10231" x1="38.2203" y1="141.534" x2="38.2203" y2="177.82" gradientUnits="userSpaceOnUse">
<stop stop-color="#0A1214"/>
<stop offset="1" stop-color="#3A474C"/>
</linearGradient>
<linearGradient id="paint5_linear_1812_10231" x1="83.7357" y1="206.586" x2="83.7357" y2="248.288" gradientUnits="userSpaceOnUse">
<stop stop-color="#0A1214"/>
<stop offset="1" stop-color="#3A474C"/>
</linearGradient>
<radialGradient id="paint6_radial_1812_10231" cx="0" cy="0" r="1" gradientUnits="userSpaceOnUse" gradientTransform="translate(89.4971 80.2307) scale(153.122 147.883)">
<stop stop-color="#F53A3A"/>
<stop offset="0.494792" stop-color="#CC1111"/>
<stop offset="1" stop-color="#8E0101"/>
</radialGradient>
<linearGradient id="paint7_linear_1812_10231" x1="189.907" y1="77.8164" x2="189.907" y2="226.06" gradientUnits="userSpaceOnUse">
<stop stop-color="#B81818"/>
<stop offset="1" stop-color="#651919"/>
</linearGradient>
<linearGradient id="paint8_linear_1812_10231" x1="134.196" y1="64.7764" x2="134.196" y2="89.2941" gradientUnits="userSpaceOnUse">
<stop stop-color="#182426"/>
<stop offset="1" stop-color="#112021"/>
</linearGradient>
<linearGradient id="paint9_linear_1812_10231" x1="79.9878" y1="107.139" x2="79.9878" y2="133.616" gradientUnits="userSpaceOnUse">
<stop stop-color="#2A3A3B"/>
<stop offset="1" stop-color="#112021"/>
</linearGradient>
<linearGradient id="paint10_linear_1812_10231" x1="129.892" y1="128.501" x2="129.892" y2="155.85" gradientUnits="userSpaceOnUse">
<stop stop-color="#2A3A3B"/>
<stop offset="1" stop-color="#112021"/>
</linearGradient>
<linearGradient id="paint11_linear_1812_10231" x1="124.28" y1="188.279" x2="124.28" y2="211.336" gradientUnits="userSpaceOnUse">
<stop stop-color="#0A191B"/>
<stop offset="1" stop-color="#112021"/>
</linearGradient>
<linearGradient id="paint12_linear_1812_10231" x1="196.395" y1="111.826" x2="196.395" y2="137.051" gradientUnits="userSpaceOnUse">
<stop stop-color="#203232"/>
<stop offset="1" stop-color="#112021"/>
</linearGradient>
<linearGradient id="paint13_linear_1812_10231" x1="220.959" y1="157.966" x2="220.959" y2="185.08" gradientUnits="userSpaceOnUse">
<stop stop-color="#0A1214"/>
<stop offset="1" stop-color="#112021"/>
</linearGradient>
<linearGradient id="paint14_linear_1812_10231" x1="170.76" y1="96.5307" x2="170.76" y2="236.103" gradientUnits="userSpaceOnUse">
<stop stop-color="#182426"/>
<stop offset="1" stop-color="#1F3338"/>
</linearGradient>
</defs>
</svg>